<svg width="16" height="16" viewBox="0 0 16 16" fill="none" xmlns="http://www.w3.org/2000/svg">
<path d="M0 4C0 1.79086 1.79086 0 4 0H12C14.2091 0 16 1.79086 16 4V12C16 14.2091 14.2091 16 12 16H4C1.79086 16 0 14.2091 0 12V4Z" fill="#EC4899"/>
<path d="M12.207 4.793C12.3945 4.98053 12.4998 5.23484 12.4998 5.5C12.4998 5.76516 12.3945 6.01947 12.207 6.207L7.207 11.207C7.01947 11.3945 6.76516 11.4998 6.5 11.4998C6.23483 11.4998 5.98052 11.3945 5.793 11.207L3.793 9.207C3.61084 9.0184 3.51004 8.7658 3.51232 8.5036C3.5146 8.2414 3.61977 7.99059 3.80518 7.80518C3.99058 7.61977 4.2414 7.5146 4.50359 7.51233C4.76579 7.51005 5.01839 7.61084 5.20699 7.793L6.5 9.086L10.793 4.793C10.9805 4.60553 11.2348 4.50021 11.5 4.50021C11.7652 4.50021 12.0195 4.60553 12.207 4.793Z" fill="white"/>
<path d="M4 1H12V-1H4V1ZM15 4V12H17V4H15ZM12 15H4V17H12V15ZM1 12V4H-1V12H1ZM4 15C2.34315 15 1 13.6569 1 12H-1C-1 14.7614 1.23858 17 4 17V15ZM15 12C15 13.6569 13.6569 15 12 15V17C14.7614 17 17 14.7614 17 12H15ZM12 1C13.6569 1 15 2.34315 15 4H17C17 1.23858 14.7614 -1 12 -1V1ZM4 -1C1.23858 -1 -1 1.23858 -1 4H1C1 2.34315 2.34315 1 4 1V-1Z" fill="#EC4899"/>
</svg>
